<svg version="1.2" xmlns="http://www.w3.org/2000/svg" viewBox="0 0 1920 719" width="1920" height="719"><defs><clipPath clipPathUnits="userSpaceOnUse" id="cp1"><path d="m0 0h1920v719h-1920z"/></clipPath></defs><style>.a{fill:#f6f6f6}.b{fill:#ededed}</style><g clip-path="url(#cp1)"><path class="a" d="m0 0h1920v719h-1920z"/><path fill-rule="evenodd" class="b" d="m58 42.2l-1.6-1.6 1.8 1.4 5.2-6.7 30.5-28.8 30.6 28.9 4.3 5.6 48.6-46h2.2l-49.9 47.2 0.7 0.9-36.5-34.6-36.6 34.6zm-49.9-47.2h2.2l46.6 44.1-0.9 1.2zm85.7 80.9l-73.4 69.5-1-1.2 74.4-70.4 74.4 70.4-1 1.2zm-14.2 146l14.2-13.6 14.3 13.6-0.9 1.2-13.4-12.7-13.3 12.7zm-30.1-38.9l44.4-41.9 44.3 41.9-0.9 1.2-43.4-41-43.4 41zm44.3-6.2l-28.4 26.8-0.9-1.2 29.3-27.7 29.3 27.7-0.9 1.2zm0-134.5l-88.5 83.7-0.9-1.2 89.4-84.6 89.4 84.6-1 1.2zm21.9-22.6l26.1-24.6h2.2l-27.4 25.8zm-15-19.4l5.5-5.2h2.3l-6.9 6.4zm89.4 52.1l-28.3 26.8-1-1.2 29.2-27.6h0.1v-0.1l29.3 27.7-0.9 1.2zm-74.4 216.3l74.4-70.4 74.3 70.4-0.9 1.2-73.4-69.5-73.4 69.5zm-15.1-19.4l89.4-84.6 89.4 84.6-0.9 1.2-88.5-83.7-88.4 83.7zm-101.8-161.9v-2.1l12.9 12.2-0.9 1.2zm0-67.3v-2.1l42.9 40.6-0.9 1.3zm0 33.6v-2.1l27.9 26.4-0.9 1.2zm80.3-58.6h2.2l5.5 5.2-0.9 1.2zm-35.6 0h2.2l26.1 24.7-0.9 1.2zm-44.7 173v-2.1l88 83.3-1 1.2zm0 33.6v-2.1l73 69.1-0.9 1.2zm251.5-159.4l-1.7-1.6 1.9 1.4 5.1-6.7 30.5-28.8 30.7 28.9 4.2 5.6 48.6-46h2.2l-49.8 47.2 0.7 0.9-36.6-34.6-36.5 34.6zm-49.9-47.2h2.2l46.6 44.1-0.9 1.2zm85.7 80.9l-73.5 69.5-0.9-1.2 74.4-70.4 74.3 70.4-0.9 1.2zm-14.3 146l14.3-13.5 14.3 13.5-1 1.2-13.3-12.7-13.3 12.7zm14.2-78.7l-43.4 41-0.9-1.2 44.3-41.9 44.4 41.9-1 1.2zm-29.3 59.3l29.3-27.7 29.3 27.7-0.9 1.2-28.4-26.8-28.3 26.8zm29.3-160.2l-88.5 83.7-0.9-1.2 89.4-84.6 89.3 84.6-0.9 1.2zm21.9-22.6l26.1-24.6h2.2l-27.4 25.8zm-15-19.4l5.5-5.2h2.2l-6.8 6.4zm89.4 52.1l-28.3 26.8-1-1.2 29.3-27.6h0.1l29.2 27.6-0.9 1.2zm-74.4 216.3l74.4-70.4 74.3 70.4-0.9 1.2-73.4-69.5-73.5 69.5zm-15-19.4l89.4-84.6 89.4 84.6-0.9 1.2-88.5-83.7-88.5 83.7zm-117.3-151.8l14.3-13.5 14.2 13.5-0.9 1.2-13.3-12.6-13.4 12.6zm-30-38.8l44.2-41.9 0.1-0.1 44.3 42-0.9 1.2-43.4-41.1-43.4 41.1zm126-63.6h2.2l5.5 5.3-0.9 1.2zm-35.6 0h2.2l26.1 24.6-0.9 1.3zm206.8 47.2l-1.7-1.6 1.8 1.4 5.2-6.7 30.5-28.9 30.6 29 4.3 5.5 48.6-45.9h2.2l-49.9 47.2 0.8 0.9-36.6-34.6-36.6 34.6zm-49.9-47.2h2.2l46.6 44.1-0.9 1.2zm85.7 80.9l-73.4 69.4-1-1.2 74.4-70.3 74.4 70.3-1 1.2zm0 134.6l-13.3 12.6-0.9-1.2 14.2-13.5 14.3 13.5-0.9 1.2zm0-67.2l-43.4 41-0.9-1.2 44.3-41.9 44.3 41.9-0.9 1.2zm-29.3 59.3l29.3-27.7 29.3 27.7-1 1.2-28.3-26.9-28.4 26.9zm-60.1-77.7l89.4-84.6 89.4 84.6-0.9 1.2-88.5-83.7-88.5 83.7zm111.3-105.1l26.1-24.6h2.2l-27.3 25.9zm-15.1-19.5l5.6-5.2h2.2l-6.8 6.4zm89.3 52.1l-28.3 26.8-0.9-1.2 29.2-27.7 29.3 27.7-0.9 1.2zm-74.4 216.3l74.4-70.3 74.4 70.3-1 1.2-73.4-69.5-73.4 69.5zm74.3-101.9l-88.4 83.7-1-1.2 89.4-84.6 89.4 84.6-0.9 1.2zm-192.5-80.7l-13.3 12.6-1-1.2 14.3-13.5 14.3 13.5-1 1.2zm-44.3-27.5l44.3-41.9 0.1 0.1 44.2 41.8-0.9 1.2-43.4-41-43.3 41zm125.9-63.5h2.2l5.5 5.3-0.9 1.2zm-35.5 0h2.2l26 24.6-0.9 1.2zm206.8 47.2l-1.7-1.5 1.8 1.4 5.2-6.8 30.5-28.8 30.7 29 4.2 5.5 48.6-46h2.2l-49.8 47.2 0.7 1-36.6-34.6-36.5 34.6zm-49.9-47.2h2.2l46.6 44.1-1 1.2zm85.8 80.9l-73.5 69.4-0.9-1.2 74.4-70.3 74.3 70.3-0.9 1.2zm0 134.6l-13.4 12.6-0.9-1.2 14.3-13.5 14.3 13.5-1 1.2zm-44.3-27.4l44.3-41.9 44.4 41.9-1 1.2-43.4-41.1-43.4 41.1zm15.1 19.4l29.3-27.7 29.3 27.7-1 1.2-28.3-26.8-28.4 26.8zm29.3-160.2l-88.5 83.7-0.9-1.2 89.4-84.6 89.4 84.6-0.9 1.2zm21.8-22.5l26.1-24.7h2.2l-27.3 25.9zm-15.1-19.4l5.6-5.3h2.2l-6.8 6.5zm89.4 52.1l-28.4 26.8-0.9-1.2 29.3-27.7 29.2 27.7-0.9 1.2zm-74.3 216.2l74.3-70.3 74.4 70.3-1 1.2-73.4-69.4-73.4 69.4zm74.3-101.9l-88.4 83.7-0.9-1.2 89.3-84.6 89.4 84.6-0.9 1.2zm-206.7-69.3l14.2-13.5 14.3 13.5-1 1.2-13.3-12.6-13.3 12.6zm-30.1-38.8l44.3-42 44.4 42-1 1.2-43.4-41.1-43.3 41.1zm125.9-63.6h2.2l5.6 5.3-1 1.2zm-35.5 0h2.2l26 24.7-0.9 1.2zm206.8 47.2l-1.7-1.6 1.9 1.4 5.2-6.7 30.4-28.9 30.7 29 4.2 5.6 48.7-46h2.2l-49.9 47.2 0.7 0.9-36.6-34.6-36.5 34.6zm-49.9-47.2h2.2l46.6 44.1-0.9 1.2zm85.7 80.9l-73.5 69.5-0.9-1.2 74.4-70.4 74.3 70.4-0.9 1.2zm0 134.5l-13.3 12.7-1-1.3 14.3-13.5 14.3 13.5-1 1.3zm0-67.3l-43.3 41-1-1.2 44.3-41.9 44.4 41.9-1 1.2zm-29.3 59.3l29.3-27.7 29.3 27.7-0.9 1.2-28.4-26.8-28.3 26.8zm29.3-160.2l-88.5 83.7-0.9-1.2 89.4-84.6 89.4 84.6-1 1.2zm21.9-22.6l26.1-24.6h2.2l-27.4 25.9zm-15-19.5l5.6-5.2h2.2l-6.8 6.4zm89.3 52.1l-28.3 26.8-1-1.2 29.3-27.7 29.3 27.7-0.9 1.2zm-74.4 216.3l74.4-70.3 74.3 70.3-0.9 1.2-73.4-69.5-73.4 69.5zm74.3-101.9l-88.4 83.7-1-1.2 89.4-84.6 89.4 84.6-0.9 1.2zm-206.8-69.3l14.3-13.5 14.3 13.5-1 1.2-13.3-12.6-13.3 12.6zm-30.1-38.9l44.3-41.9 44.3 41.9-0.9 1.2-43.4-41-43.4 41zm126-63.5h2.2l5.5 5.3-0.9 1.2zm-35.6 0h2.3l26 24.6-0.9 1.2zm206.8 47.2l-1.7-1.6 1.8 1.4 5.2-6.7 30.5-28.8 30.7 29 4.2 5.5 48.6-46h2.2l-49.9 47.2 0.8 1-36.6-34.6-36.6 34.6zm-49.8-47.2h2.2l46.6 44.1-1 1.2zm11.4 149.1l74.3-70.3 74.4 70.3-0.9 1.2-73.5-69.4-73.4 69.4zm74.4 66.3l-13.4 12.6-0.9-1.2 14.3-13.5 14.3 13.5-1 1.2zm-44.3-27.4l44.3-41.9 44.3 41.9-0.9 1.2-43.4-41-43.4 41zm15.1 19.4l29.3-27.7 29.3 27.7-1 1.2-28.3-26.8-28.4 26.8zm29.3-160.1l-88.5 83.6-0.9-1.2 89.4-84.5 89.4 84.5-0.9 1.2zm21.8-22.5l26.1-24.7h2.2l-27.3 25.9zm-15.1-19.4l5.6-5.3h2.2l-6.8 6.5zm89.4 52.1l-28.4 26.8-0.9-1.2 29.3-27.7 29.2 27.7-0.9 1.2zm-74.4 216.3l74.4-70.4 74.4 70.4-1 1.2-73.4-69.5-73.4 69.5zm74.3-101.9l-88.4 83.6-0.9-1.2 89.3-84.5 89.4 84.5-0.9 1.2zm-206.7-69.3l14.2-13.5 14.3 13.5-1 1.2-13.3-12.6-13.3 12.6zm-30.1-38.8l44.3-41.9 44.4 41.9-1 1.2-43.4-41-43.3 41zm125.9-63.5h2.2l5.6 5.2-1 1.2zm-35.5 0h2.2l26 24.7-0.9 1.2zm206.8 47.2l-49.9-47.2h2.2l48.7 46 4.4-5.7 30.4-28.8 30.7 28.9 4.2 5.6 48.6-46h2.3l-49.9 47.2 0.7 0.9-36.6-34.5-36.5 34.6zm-38.6 101.9l74.4-70.4 74.4 70.4-1 1.2-73.4-69.5-73.4 69.5zm60 77.7l14.3-13.5 14.3 13.5-0.9 1.2-13.4-12.6-13.3 12.6zm14.3-78.7l-43.4 41.1-1-1.3 44.4-41.9 44.3 41.9-1 1.3zm-29.3 59.2l29.3-27.7 29.3 27.7-0.9 1.2-28.4-26.8-28.3 26.8zm29.3-160.2l-88.5 83.7-0.9-1.2 89.4-84.6 89.4 84.6-1 1.2zm21.9-22.5l26.1-24.7h2.2l-27.4 25.9zm-15-19.4l5.6-5.3h2.2l-6.9 6.5zm89.4 52.1l-28.3 26.8-1-1.2 29.2-27.7 0.1 0.1 0.1-0.1 29.2 27.7-0.9 1.2zm-74.4 216.2l74.4-70.3 74.3 70.3-0.9 1.2-73.4-69.4-73.4 69.4zm74.3-101.9l-88.4 83.7-1-1.2 89.4-84.5 89.4 84.5-0.9 1.2zm-206.8-69.3l14.3-13.5 14.3 13.5-1 1.2-13.3-12.6-13.3 12.6zm14.2-78.7l-43.4 41.1-0.9-1.2 44.3-42 44.3 42-0.9 1.2zm81.6-23.7h2.3l5.5 5.2-0.9 1.2zm-35.6 0h2.2l26.1 24.7-1 1.2zm242.7 13.6l-36.6 34.6 0.7-1-49.8-47.2h2.2l48.6 46 4.4-5.7 30.5-28.8 30.6 29 4.3 5.5 48.6-46h2.2l-49.9 47.2 0.7 1zm0 67.3l-73.4 69.4-0.9-1.2 74.3-70.3 74.4 70.3-0.9 1.2zm0 134.6l-13.4 12.6-0.9-1.2 14.3-13.5 14.3 13.5-1 1.2zm0-67.3l-43.4 41.1-0.9-1.2 44.3-41.9 44.3 41.9-0.9 1.2zm0 33.6l-28.4 26.9-0.9-1.2 29.3-27.8 29.3 27.8-0.9 1.2zm0-134.6l-88.5 83.7-0.9-1.2 89.4-84.6 89.4 84.6-1 1.2zm21.9-22.5l26.1-24.7h2.2l-27.3 25.9zm-15.1-19.5l5.6-5.2h2.2l-6.8 6.4zm89.3 52.1l-28.3 26.8-0.9-1.2 29.2-27.6v0.1l0.1-0.1 29.2 27.6-0.9 1.2zm0 148l-73.4 69.5-1-1.2 74.4-70.3 74.4 70.3-1 1.2zm0-33.6l-88.4 83.7-1-1.3 89.4-84.5 89.4 84.5-0.9 1.3zm-206.8-69.4l14.3-13.4 14.3 13.4-1 1.3-13.3-12.7-13.3 12.7zm14.2-78.7l-43.3 41-1-1.2 44.2-41.8h0.1l0.1-0.1 44.2 41.9-0.9 1.2zm81.6-23.7h2.3l5.5 5.3-0.9 1.2zm-35.6 0h2.2l26.1 24.6-1 1.2zm-1297.1 329.8l-73.5 69.5-0.9-1.2 74.4-70.4 74.3 70.4-0.9 1.2zm-14.3 146l14.3-13.5 14.3 13.5-0.9 1.2-13.4-12.7-13.3 12.7zm-30.1-38.9l44.3-41.9 44.4 41.9-1 1.2-43.4-41-43.3 41zm44.3-6.2l-28.4 26.9-0.9-1.3 29.3-27.7 29.3 27.7-1 1.3zm0-134.6l-88.4 83.7-0.9-1.2 89.3-84.6 89.4 84.6-0.9 1.2zm96.2 43.7l-13.3 12.7-0.9-1.3 14.2-13.4 14.3 13.4-0.9 1.3zm0-67.3l-43.4 41-0.9-1.2 44.3-41.9 44.3 41.9-0.9 1.2zm0 33.7l-28.4 26.8-0.9-1.2 29.3-27.7 29.2 27.7-0.9 1.2zm-74.4 216.2l74.4-70.3 74.4 70.3-1 1.2-73.4-69.4-73.4 69.4zm-15-19.4l89.3-84.6 89.4 84.6-0.9 1.2-88.5-83.7-88.4 83.7zm-101.7-161.9v-2.1l12.9 12.2-1 1.2zm0-67.2v-2.1l43 40.6-1 1.2zm0 33.6v-2l28 26.4-1 1.2zm0 114.3v-2.1l88 83.3-0.9 1.2zm0 33.7v-2.1l73 69-0.9 1.2zm287.3-125.7l-73.4 69.5-1-1.3 74.4-70.3 74.4 70.3-1 1.3zm-14.2 145.9l14.2-13.5 14.3 13.5-0.9 1.2-13.4-12.6-13.3 12.6zm14.3-78.7l-43.4 41.1-0.9-1.2 44.3-41.9 44.3 41.9-0.9 1.2zm-29.3 59.3l29.3-27.8 29.3 27.8-1 1.2-28.3-26.9-28.4 26.9zm29.3-160.2l-88.5 83.7-0.9-1.2 89.4-84.6 89.4 84.6-0.9 1.2zm96.2 43.7l-13.3 12.6-1-1.2 14.3-13.5 14.3 13.5-1 1.2zm0-67.2l-43.4 41-0.9-1.2 44.3-41.9 44.3 41.9-0.9 1.2zm0 33.6l-28.4 26.9-0.9-1.2 29.3-27.8 29.3 27.8-0.9 1.2zm-74.4 216.2l74.4-70.3 74.3 70.3-0.9 1.2-73.4-69.4-73.5 69.4zm-15-19.4l89.4-84.6 89.4 84.6-1 1.2-88.4-83.7-88.5 83.7zm185.7-173.3l-73.5 69.5-0.9-1.2 74.4-70.4 74.3 70.4-0.9 1.2zm0 134.5l-13.4 12.7-0.9-1.2 14.3-13.5 14.3 13.5-1 1.2zm0-67.3l-43.4 41-0.9-1.2 44.3-41.9 44.4 41.9-1 1.2zm-29.3 59.3l29.3-27.7 29.3 27.7-0.9 1.2-28.4-26.8-28.3 26.8zm-60.1-77.7l89.4-84.6 89.3 84.6-0.9 1.2-88.4-83.7-88.5 83.7zm171.4-27.3l14.2-13.5 14.3 13.5-0.9 1.2-13.4-12.6-13.3 12.6zm14.3-78.7l-43.4 41-1-1.2 44.4-41.9 44.3 41.9-1 1.2zm0 33.7l-28.3 26.8-1-1.2 29.3-27.7 29.3 27.7-0.9 1.2zm-74.4 216.3l74.4-70.4 74.3 70.4-0.9 1.2-73.4-69.5-73.4 69.5zm-15.1-19.5l89.4-84.5 89.4 84.5-0.9 1.3-88.5-83.7-88.4 83.7zm185.6-173.4l-73.4 69.5-1-1.2 74.4-70.3 74.4 70.3-1 1.2zm0 134.6l-13.3 12.6-1-1.2 14.3-13.5 14.3 13.5-0.9 1.2zm-44.4-27.4l44.4-42 44.3 42-0.9 1.2-43.4-41.1-43.4 41.1zm15 19.4l29.3-27.7 29.3 27.7-0.9 1.2-28.4-26.8-28.4 26.8zm29.3-160.2l-88.4 83.7-1-1.2 89.4-84.6 89.4 84.6-0.9 1.2zm82 55.2l14.2-13.5 14.3 13.5-0.9 1.2-13.4-12.6-13.3 12.6zm14.3-78.7l-43.4 41-1-1.2 44.4-41.9 44.3 41.9-1 1.2zm0 33.7l-28.3 26.8-0.9-1.2 29.2-27.7 29.3 27.7-0.9 1.2zm-74.4 216.3l74.4-70.4 74.3 70.4-0.9 1.2-73.4-69.5-73.4 69.5zm-15.1-19.5l89.4-84.5 89.4 84.5-0.9 1.2-88.5-83.6-88.4 83.6zm185.6-173.3l-73.4 69.5-1-1.2 74.4-70.3 74.4 70.3-1 1.2zm0 134.6l-13.3 12.6-0.9-1.2 14.2-13.5 14.3 13.5-0.9 1.2zm0-67.3l-43.4 41.1-1-1.2 44.4-42 44.3 42-0.9 1.2zm-29.3 59.2l29.3-27.7 29.3 27.7-1 1.3-28.3-26.9-28.4 26.9zm29.3-160.2l-88.5 83.7-0.9-1.3 89.4-84.5 89.4 84.5-0.9 1.3zm96.2 43.7l-13.3 12.6-1-1.2 14.3-13.5 14.3 13.5-1 1.2zm0-67.3l-43.4 41.1-0.9-1.2 44.3-41.9 44.3 41.9-0.9 1.2zm0 33.6l-28.4 26.8-0.9-1.2 29.3-27.7 29.3 27.7-0.9 1.2zm-74.4 216.3l74.4-70.3 74.3 70.3-0.9 1.2-73.4-69.5-73.5 69.5zm-15-19.4l89.4-84.6 89.4 84.6-1 1.2-88.4-83.7-88.5 83.7zm111.3-105l74.4-70.4 74.3 70.4-0.9 1.2-73.4-69.5-73.5 69.5zm74.4 66.3l-13.4 12.6-0.9-1.2 14.3-13.5 14.3 13.5-1 1.2zm-44.3-27.5l44.3-41.9 44.4 41.9-1 1.2-43.4-41-43.4 41zm15.1 19.5l29.3-27.7 29.3 27.7-1 1.2-28.3-26.9-28.4 26.9zm29.3-160.2l-88.5 83.7-0.9-1.2 89.4-84.6 89.4 84.6-0.9 1.2zm96.2 43.7l-13.3 12.6-1-1.2 14.3-13.5 14.3 13.5-1 1.2zm0-67.2l-43.4 41-0.9-1.2 44.3-41.9 44.3 41.9-0.9 1.2zm0 33.6l-28.4 26.9-0.9-1.2 29.3-27.7 29.3 27.7-0.9 1.2zm-74.4 216.2l74.4-70.3 74.3 70.3-0.9 1.2-73.4-69.4-73.5 69.4zm-15-19.4l89.4-84.6 89.4 84.6-1 1.2-88.4-83.7-88.5 83.7zm111.3-105l74.4-70.4 74.3 70.4-0.9 1.2-73.4-69.5-73.5 69.5zm60.1 77.7l14.3-13.5 14.3 13.5-1 1.2-13.3-12.6-13.4 12.6zm14.3-78.7l-43.4 41.1-0.9-1.3 44.3-41.9 44.3 41.9-0.9 1.3zm-29.3 59.2l29.3-27.7 29.3 27.7-0.9 1.2-28.4-26.8-28.4 26.8zm29.3-160.2l-88.4 83.7-1-1.2 89.4-84.6 89.4 84.6-0.9 1.2zm96.2 43.8l-13.3 12.6-0.9-1.2 14.2-13.5h0.1l14.2 13.5-0.9 1.2zm0-67.3l-43.4 41.1-0.9-1.2 44.2-41.9h0.1v-0.1l44.3 42-1 1.2zm0 33.6l-28.3 26.8-0.9-1.2 29.2-27.7h0.1l29.2 27.7-0.9 1.2zm-74.4 216.3l74.4-70.3v-0.1l74.4 70.4-1 1.2-73.4-69.5-73.4 69.5zm-15-19.4l89.3-84.6 89.4 84.6-0.9 1.2-88.5-83.7-88.4 83.7zm185.6-173.3l-73.4 69.4-1-1.2 74.4-70.3 74.4 70.3-1 1.2zm0 134.6l-13.3 12.6-0.9-1.2 14.2-13.5 14.3 13.5-0.9 1.2zm0-67.3l-43.4 41.1-0.9-1.2 44.3-41.9 44.3 41.9-0.9 1.2zm0 33.6l-28.4 26.9-0.9-1.2 29.3-27.7 29.3 27.7-1 1.2zm0-134.6l-88.4 83.7-1-1.2 89.4-84.6 89.4 84.6-0.9 1.2zm96.2 43.8l-13.3 12.6-0.9-1.2 14.2-13.5h0.1l14.2 13.5-0.9 1.2zm0-67.3l-43.4 41-0.9-1.2 44.2-41.9h0.1l44.3 41.9-1 1.2zm0 33.7l-28.3 26.8-0.9-1.2 29.2-27.7h0.1l29.2 27.7-0.9 1.2zm0 148l-73.4 69.5-1-1.2 74.4-70.4 74.4 70.4-1 1.2zm-89.4 48.8l89.4-84.5v-0.1l89.4 84.6-0.9 1.2-88.5-83.7-88.4 83.7zm-1354.2 75.6l-73.4 69.5-1-1.2 74.4-70.4 74.4 70.4-1 1.2zm-14.2 146l14.2-13.5 14.3 13.5-0.9 1.2-13.4-12.6-13.3 12.6zm-30-38.9l44.3-41.9 44.3 41.9-0.9 1.2-43.4-41-43.4 41zm44.3-6.2l-28.4 26.9-0.9-1.2 29.3-27.8 29.3 27.8-0.9 1.2zm0-134.6l-88.5 83.7-0.9-1.2 89.4-84.6 89.4 84.6-1 1.2zm82 55.2l14.3-13.5 14.2 13.5-0.9 1.2-13.3-12.6-13.4 12.6zm-30-38.9l44.2-41.8 0.1-0.1 44.3 41.9-0.9 1.2-43.4-41-43.4 41zm44.3-6.2l-28.3 26.9-0.9-1.3 29.2-27.6h0.1l29.2 27.6-0.9 1.3zm43.2 188.8l-43.2-40.9-43.2 40.9h-2.2l45.4-42.9 45.4 42.9zm-35.6 0l-7.6-7.2-7.6 7.2h-2.2l9.8-9.3 9.8 9.3zm71.1 0l-78.7-74.5-78.7 74.5h-2.2l80.9-76.6 80.9 76.6zm-269.8-153.9v-2.1l12.9 12.2-0.9 1.2zm0-67.3v-2.1l42.9 40.7-0.9 1.2zm0 33.6v-2.1l27.9 26.4-0.9 1.2zm77.3 187.6l-77.3-73.2v-2.1l79.5 75.3zm-71.1 0l-6.2-5.9v-2.1l8.4 8zm35.6 0l-41.8-39.6v-2.1l44 41.7zm245.5-165.3l-73.4 69.5-0.9-1.3 74.3-70.3 74.4 70.3-0.9 1.3zm-14.3 145.9l14.3-13.5 14.2 13.5-0.9 1.2-13.3-12.6-13.4 12.6zm14.3-78.7l-43.4 41.1-0.9-1.2 44.3-41.9 44.3 41.9-0.9 1.2zm-29.3 59.3l29.3-27.8 29.3 27.8-0.9 1.2-28.4-26.9-28.4 26.9zm29.3-160.2l-88.4 83.7-1-1.2 89.4-84.6 89.4 84.6-0.9 1.2zm96.2 43.7l-13.3 12.6-0.9-1.2 14.2-13.5 14.3 13.5-1 1.2zm-44.3-27.4l44.3-41.9 0.1 0.1v-0.1l44.3 41.9-1 1.2-43.4-41-43.3 41zm44.3-6.2l-28.4 26.8-0.9-1.2 29.3-27.7v0.1l29.3 27.6-1 1.2zm43.2 188.9l-43.2-40.9-43.1 40.9h-2.3l45.4-43 45.4 43zm-35.5 0l-7.7-7.2-7.6 7.2h-2.2l9.8-9.3 9.9 9.3zm71.1 0l-78.8-74.5-78.7 74.5h-2.2l80.9-76.6 81 76.6zm17.5-165.3l-73.5 69.4-0.9-1.2 74.4-70.3 74.4 70.3-1 1.2zm0 134.6l-13.3 12.6-1-1.2 14.3-13.5 14.3 13.5-0.9 1.2zm0-67.3l-43.4 41.1-1-1.2 44.4-41.9 44.3 41.9-0.9 1.2zm-29.3 59.3l29.3-27.8 29.3 27.8-1 1.2-28.3-26.9-28.4 26.9zm-60.1-77.7l89.4-84.6 89.4 84.6-1 1.2-88.4-83.7-88.5 83.7zm171.4-27.4l14.3-13.5 14.2 13.5-0.9 1.2-13.3-12.6-13.4 12.6zm-30-38.8l44.3-41.9 44.3 41.9-0.9 1.2-43.4-41-43.4 41zm44.3-6.2l-28.3 26.8-1-1.2 29.3-27.7 29.3 27.7-0.9 1.2zm43.1 188.9l-43.1-40.9-43.2 40.9h-2.2l45.4-43 45.4 43zm-35.6 0l-7.6-7.2-7.6 7.2h-2.2l9.8-9.3 9.8 9.3zm71.1 0l-78.7-74.5-78.7 74.5h-2.3l81-76.6 80.9 76.6zm17.5-165.3l-73.4 69.4-0.9-1.2 74.3-70.3 74.4 70.3-0.9 1.2zm0 134.6l-13.4 12.6-0.9-1.2 14.3-13.5 14.2 13.5-0.9 1.2zm-44.3-27.4l44.3-41.9 44.3 41.9-0.9 1.2-43.4-41.1-43.4 41.1zm15 19.4l29.3-27.7 29.3 27.7-0.9 1.2-28.4-26.8-28.3 26.8zm29.3-160.2l-88.5 83.7-0.9-1.2 89.4-84.6 89.4 84.6-1 1.2zm82 55.2l14.3-13.5 14.2 13.5-0.9 1.2-13.3-12.6-13.4 12.6zm-30-38.9l44.3-41.9 44.3 41.9-0.9 1.2-43.4-41-43.4 41zm44.3-6.1l-28.3 26.8-1-1.2 29.3-27.7 29.3 27.7-0.9 1.2zm43.2 188.8l-43.2-40.8-43.2 40.8h-2.2l45.4-42.9 45.4 42.9zm-35.6 0l-7.6-7.2-7.6 7.2h-2.2l9.8-9.3 9.8 9.3zm71.1 0l-78.7-74.5-78.7 74.5h-2.2l80.9-76.6 80.9 76.6zm17.5-165.3l-73.4 69.5-0.9-1.2 74.3-70.4 74.4 70.4-0.9 1.2zm0 134.5l-13.4 12.7-0.9-1.2 14.3-13.5 14.3 13.5-1 1.2zm0-67.3l-43.4 41-0.9-1.2 44.3-41.9 44.3 41.9-0.9 1.2zm-29.3 59.3l29.3-27.7 29.3 27.7-0.9 1.2-28.4-26.8-28.4 26.8zm29.3-160.2l-88.4 83.7-1-1.2 89.4-84.6 89.4 84.6-0.9 1.2zm82 55.2l14.2-13.5 14.3 13.5-0.9 1.2-13.4-12.6-13.3 12.6zm-30-38.9l44.3-41.9 44.3 41.9-0.9 1.2-43.4-41-43.4 41zm44.3-6.2l-28.4 26.9-0.9-1.2 29.3-27.7 29.3 27.7-0.9 1.2zm43.1 188.8l-43.1-40.8-43.2 40.8h-2.2l45.4-42.9 45.3 42.9zm-35.5 0l-7.6-7.2-7.6 7.2h-2.3l9.9-9.3 9.8 9.3zm71.1 0l-78.7-74.5-78.8 74.5h-2.2l81-76.6 80.9 76.6zm-56.9-97l74.4-70.4 74.4 70.4-0.9 1.2-73.5-69.5-73.4 69.5zm74.3 66.3l-13.3 12.6-0.9-1.2 14.2-13.5 14.3 13.5-0.9 1.2zm-44.3-27.4l44.3-42 44.3 42-0.9 1.2-43.4-41.1-43.4 41.1zm15 19.4l29.3-27.7 29.3 27.7-0.9 1.2-28.4-26.8-28.3 26.8zm29.3-160.2l-88.5 83.7-0.9-1.2 89.4-84.6 89.4 84.6-1 1.2zm82 55.2l14.3-13.5 14.2 13.5-0.9 1.2-13.3-12.7-13.4 12.7zm14.3-78.7l-43.4 41-0.9-1.2 44.3-41.9 44.3 41.9-0.9 1.2zm0 33.7l-28.4 26.8-0.9-1.2 29.3-27.7 29.2 27.7-0.9 1.2zm43.2 188.8l-43.2-40.8-43.2 40.8h-2.2l45.4-42.9 45.4 42.9zm-35.6 0l-7.6-7.2-7.6 7.2h-2.2l9.8-9.3 9.8 9.3zm71.2 0l-78.8-74.5-78.7 74.5h-2.2l80.9-76.6 81 76.6zm-56.9-97l74.4-70.4 74.3 70.4-0.9 1.2-73.4-69.5-73.5 69.5zm60.1 77.7l14.3-13.5 14.3 13.5-0.9 1.2-13.4-12.6-13.3 12.6zm14.2-78.7l-43.3 41-1-1.2 44.3-41.9 44.4 41.9-1 1.2zm-29.3 59.3l29.3-27.7 29.3 27.7-0.9 1.2-28.4-26.8-28.3 26.8zm29.3-160.2l-88.5 83.7-0.9-1.2 89.4-84.6 89.4 84.6-1 1.2zm82 55.2l14.2-13.5h0.1l14.2 13.5-0.9 1.2-13.3-12.6-13.4 12.6zm14.3-78.7l-43.4 41-0.9-1.2 44.2-41.8 0.1 0.1 0.1-0.1 44.2 41.8-0.9 1.2zm0 33.7l-28.4 26.8-0.9-1.2 29.2-27.6 0.1 0.1v-0.1l29.3 27.6-1 1.2zm43.2 188.9l-43.2-40.9-43.2 40.9h-2.2l45.4-43v0.1-0.1l45.4 43zm-35.6 0l-7.6-7.3-7.6 7.3h-2.2l9.8-9.3 9.9 9.3zm71.1 0l-78.8-74.5-78.7 74.5h-2.2l80.9-76.6 81 76.6zm17.5-165.4l-73.5 69.5-0.9-1.2 74.4-70.4 74.3 70.4-0.9 1.2zm0 134.6l-13.3 12.6-1-1.2 14.3-13.5 14.3 13.5-0.9 1.2zm0-67.3l-43.4 41.1-1-1.2 44.4-42 44.3 42-1 1.2zm0 33.6l-28.3 26.9-0.9-1.3 29.2-27.7 29.3 27.7-0.9 1.3zm0-134.6l-88.4 83.7-1-1.2 89.4-84.6 89.4 84.6-0.9 1.2zm96.2 43.7l-13.3 12.6-0.9-1.2 14.2-13.4 14.3 13.4-1 1.2zm0-67.2l-43.3 41-1-1.2 44.3-41.8 0.1-0.1 44.3 41.9-1 1.2zm0 33.6l-28.3 26.9-1-1.2 29.2-27.7 0.1 0.1 0.1-0.1 29.2 27.7-0.9 1.2zm43.2 188.8l-43.2-40.8-43.2 40.8h-2.2l45.4-42.9 45.4 42.9zm-35.6 0l-7.6-7.2-7.6 7.2h-2.2l9.8-9.3v0.1-0.1l9.8 9.3zm71.1 0l-78.7-74.5-78.7 74.5h-2.2l80.9-76.5 80.9 76.5zm17.5-730.4l-36.5 34.6 0.7-1-1.6-1.6 1.8 1.4 5.1-6.7 30.5-28.8 30.7 29 4.2 5.5 48.6-46h2.3l-49.9 47.2 0.7 1zm-85.7-13.6h2.2l46.6 44.1-0.9 1.2zm85.7 80.9l-73.4 69.4-1-1.2 74.4-70.3 74.4 70.3-1 1.2zm0 134.6l-13.3 12.6-0.9-1.2 14.2-13.5 14.3 13.5-0.9 1.2zm0-67.3l-43.4 41.1-0.9-1.2 44.3-41.9 44.3 41.9-0.9 1.2zm0 33.6l-28.4 26.9-0.9-1.2 29.3-27.8 29.3 27.8-1 1.2zm0-134.6l-88.4 83.7-1-1.2 89.4-84.6 89.4 84.6-0.9 1.2zm21.9-22.5l26-24.7h2.2l-27.3 25.9zm-15-19.5l5.5-5.2h2.2l-6.8 6.4zm60.1 77.7l29.2-27.6 0.1 0.1 0.1-0.1 29.2 27.6-1 1.3-28.3-26.9-28.4 26.9zm-45 190.6l74.3-70.3 74.4 70.3-1 1.2-73.4-69.5-73.4 69.5zm-15-19.4l89.3-84.6h0.1l89.3 84.6-0.9 1.2-88.4-83.7-88.5 83.7zm-103.1-163.2l-13.3 12.6-0.9-1.2 14.2-13.5 14.3 13.5-1 1.2zm0-67.3l-43.3 41.1-1-1.3 44.3-41.8v0.1l0.1-0.1 44.3 41.8-1 1.3zm81.7-23.7h2.2l5.5 5.2-0.9 1.2zm-35.6 0h2.2l26.1 24.7-0.9 1.2zm206.8 47.2l-1.7-1.6 1.8 1.4 5.2-6.7 30.5-28.8 30.6 28.9 4.3 5.6 48.6-46h2.2l-49.9 47.2 0.8 0.9-36.6-34.6-36.6 34.6zm-49.9-47.2h2.2l46.6 44.1-0.9 1.2zm85.7 80.9l-73.4 69.5-1-1.2 74.4-70.4 74.4 70.4-1 1.2zm0 134.5l-13.3 12.7-0.9-1.2 14.2-13.5 14.3 13.5-0.9 1.2zm0-67.3l-43.4 41-0.9-1.2 44.3-41.9 44.3 41.9-0.9 1.2zm-29.3 59.3l29.3-27.7 29.3 27.7-1 1.2-28.3-26.8-28.4 26.8zm29.3-160.2l-88.4 83.7-1-1.2 89.4-84.6 89.4 84.6-0.9 1.2zm82 55.2l12.8-12.2v2.1l-11.9 11.3zm-60.1-77.7l26.1-24.7h2.2l-27.4 25.9zm-15-19.5l5.5-5.2h2.2l-6.8 6.5zm45.1 58.2l42.9-40.6v2.1l-42 39.7zm15.1 19.5l27.9-26.4v2l-27 25.6zm-391.5 88.7l-60.4-57.2-60.4 57.2 0.7 1-36.5-34.6-36.6 34.6 0.7-1-60.4-57.2-60.4 57.2 0.7 1-36.5-34.6-36.6 34.6 0.8-1-60.5-57.2-60.4 57.2 0.8 1-36.6-34.6-36.6 34.6 0.8-1-60.4-57.2-60.5 57.2 0.8 1-36.6-34.6-36.5 34.6 0.7-1-60.4-57.2-60.4 57.2 0.7 1-36.5-34.6-36.6 34.6 0.7-1-60.4-57.2-60.4 57.2 0.7 1-36.5-34.6-36.6 34.6 0.8-1-60.5-57.2-60.4 57.2 0.8 1-36.6-34.6-36.6 34.6 0.8-1-60.4-57.2-60.5 57.2 0.8 1-35.2-33.3v-2.1l29.3 27.6 1.5 2 2.7 3.6 61.4-58.1 59.3 56.2-0.7 0.9 2.2 1.7 4.9-6.4 30.5-28.8 30.6 28.9 1.5 2 2.8 3.6 61.3-58.1 61.4 58.1 1.7-2.2 2.7-3.5 30.5-28.8 30.6 28.9 4.3 5.6 61.3-58.1 59.4 56.2-0.8 1 2.2 1.7 5-6.5 30.5-28.8 30.6 28.9 1.5 2 2.7 3.6 61.4-58.1 61.4 58.1 4.3-5.6 30.5-28.9 30.7 28.9 1.4 2 2.8 3.6 61.4-58.1 61.3 58.1 2.8-3.6 1.6-2.1 30.5-28.8 30.6 28.9 1.5 2 2.8 3.6 61.3-58.1 61.4 58.1 2.7-3.6 1.7-2.1 30.5-28.8 30.6 28.9 1.5 2 2.8 3.6 61.3-58.1 61.4 58.1 4.4-5.7 30.4-28.8h0.1l30.6 28.9 4.2 5.6 61.4-58.1 61.3 58.1 1-1.2 3.4-4.5 30.5-28.8 30.6 28.9 4.3 5.6 61.4-58.1 59.3 56.2-0.9 1.2-58.4-55.3-60.5 57.2 0.8 1-36.6-34.6-36.5 34.6zm194.3-2.4l3.5-4.5 30.4-28.8h0.1l30.6 28.9 4.2 5.6 61.4-58.1 59.3 56.2-0.9 1.2-58.4-55.3-60.4 57.2 0.7 0.9-36.6-34.6-36.5 34.6zm195.9-4.5l29.2-27.5v2.1l-35.2 33.3zm-176.3-62.4l14.2-13.5h0.1l14.2 13.5-0.9 1.2-13.3-12.6-13.4 12.6zm-30-38.9l44.2-41.8 0.1 0.1 0.1-0.1 44.2 41.8-0.9 1.2-43.4-41-43.4 41zm126-63.5h2.2l5.5 5.3-0.9 1.2zm-35.6 0h2.2l26.1 24.6-0.9 1.2zm-142.3 329.8l-73.5 69.5-0.9-1.2 74.4-70.4 74.3 70.4-0.9 1.2zm0 134.6l-13.3 12.6-1-1.2 14.3-13.5 14.3 13.5-1 1.2zm0-67.3l-43.4 41-0.9-1.2 44.3-41.9 44.4 41.9-1 1.2zm0 33.7l-28.3 26.8-1-1.2 29.3-27.7 29.3 27.7-0.9 1.2zm0-134.5l-88.5 83.7-0.9-1.3 89.4-84.5 89.4 84.5-0.9 1.3zm81.9 55.1l14.3-13.4v-0.1l14.3 13.5-1 1.2-13.3-12.6-13.3 12.6zm14.2-78.7l-43.4 41.1-0.9-1.2 44.3-41.9 44.3 41.9-0.9 1.2zm-29.3 59.2l29.3-27.6v-0.1l29.3 27.7-0.9 1.2-28.4-26.8-28.4 26.8zm-45 190.7l74.3-70.3 0.1-0.1 74.3 70.4-0.9 1.2-73.5-69.5-73.4 69.5zm-15-19.4l89.3-84.6h0.1l89.3 84.6-0.9 1.2-88.4-83.7-88.5 83.7zm-427.6-207l-60.4-57.1-60.4 57.1 0.7 1-36.6-34.6-36.5 34.6 0.7-1-1.7-1.6 1.9 1.4 5.1-6.7 30.5-28.8 30.7 29 4.2 5.5 61.4-58 61.3 58 4.4-5.7 30.5-28.8 30.6 29 4.3 5.5 61.3-58h0.1l61.3 58 4.4-5.7 30.5-28.8 30.6 29 4.3 5.5 61.3-58 59.4 56.1-1 1.2-58.4-55.2-60.4 57.1 0.8 1-36.6-34.6-36.6 34.6 0.8-1-60.5-57.1-60.4 57.1 0.8 1-36.6-34.6-36.6 34.6zm577.5 0l-1.7-1.6 1.8 1.4 5.2-6.7 30.5-28.8 30.6 28.9 4.3 5.6 60-56.8v2.1l-59.1 55.9 0.8 0.9-36.6-34.6-36.6 34.7zm-1347.3 0l-1.7-1.6 1.8 1.4 5.2-6.7 30.5-28.9 30.6 29 4.3 5.5 61.4-58 59.3 56.1-0.9 1.2-58.4-55.2-60.5 57.2 0.8 0.9-36.6-34.6-36.6 34.6zm385 0l-1.7-1.6 1.8 1.4 5.2-6.7 30.5-28.8 30.6 29 4.3 5.5 61.3-58 59.4 56.1-0.9 1.2-58.4-55.2-60.5 57.1 0.8 1-36.6-34.6-36.6 34.6zm-192.4 0l-1.7-1.6 1.8 1.4 5.2-6.7 30.5-28.8 30.6 29 4.3 5.5 61.3-58.1 59.4 56.2-1 1.2-58.4-55.3-60.4 57.2 0.8 1-36.6-34.6-36.6 34.6zm-384.9 0l-60.4-57.2-60.5 57.2 0.8 0.9-36.6-34.6-36.6 34.6 0.8-0.9-1.7-1.6 1.8 1.4 5.2-6.7 30.5-28.9 30.6 29 4.3 5.6 61.4-58.1 61.3 58.1 4.4-5.7 30.5-28.9 30.6 29 4.3 5.6 61.3-58.1 59.4 56.2-1 1.2-58.4-55.3-60.4 57.2 0.8 0.9-36.6-34.6-36.6 34.6zm1383.2-33.6l-36.6 34.6 0.7-1-1.6-1.5 1.8 1.4 5.2-6.8 30.5-28.8 30.6 29 4.2 5.5 61.4-58 59.3 56.1-0.9 1.2-58.4-55.2-60.4 57.1 0.7 1zm-1634.6-22.2v-2.1l57.9 54.8-0.9 1.2zm1827.1 89.5l-73.4 69.5-0.9-1.2 74.3-70.3 74.4 70.3-0.9 1.2zm0 134.6l-13.4 12.6-0.9-1.2 14.3-13.5 14.2 13.5-0.9 1.2zm0-67.3l-43.4 41.1-0.9-1.2 44.3-42 44.3 42-0.9 1.2zm-29.3 59.3l29.3-27.8 29.3 27.8-0.9 1.2-28.4-26.9-28.4 26.9zm29.3-160.2l-88.4 83.7-1-1.2 89.4-84.6 89.4 84.6-0.9 1.2zm82 55.1l12.9-12.2v2.1l-12 11.3zm-60.1-77.7l73-69v2l-72.1 68.2zm-15-19.4l88-83.3v2.1l-87 82.4zm45 58.3l43-40.6v2l-42 39.8zm15 19.4l27.9-26.4v2.1l-27 25.5zm-933.1 55.1l-36.5 34.6 4-5.2 2-2.7 30.5-28.8 30.7 29 1.4 2 2.8 3.5 61.4-58 59.3 56.1-0.9 1.2-58.4-55.2-60.5 57.1 0.8 1zm-223 26.8l30.5-28.9 30.6 29 1.5 1.9 2.8 3.6 61.4-58 59.3 56.1-0.9 1.2-58.4-55.2-60.5 57.1 0.8 1-36.6-34.6-36.5 34.6zm-192.4-0.1l30.4-28.8 30.7 29 1.4 1.9 2.8 3.6 61.4-58 59.3 56.1-0.9 1.2-58.4-55.3-60.5 57.2 0.8 1-36.6-34.6-36.5 34.6zm1185.3-26.7l-36.6 34.5 6.1-7.8 30.5-28.8 30.6 28.9 4.3 5.6 61.3-58.1 59.4 56.2-1 1.2-58.4-55.3-60.4 57.2 0.7 0.9zm-1347.3 0l-36.5 34.6 6.1-7.8 30.4-28.8 30.7 28.9 4.2 5.6 61.4-58.1 59.3 56.2-0.9 1.2-58.4-55.3-60.5 57.2 0.8 0.9zm-383.6 1.3v-2.1l29.3 27.7 1.5 2 2.7 3.6 61.4-58.1 59.3 56.2-0.9 1.2-58.4-55.3-60.4 57.2 0.7 0.9zm191.1-1.3l-36.5 34.6 6-7.8 30.5-28.9 30.6 29 1.5 2 2.8 3.6 61.4-58.1 59.3 56.1-0.9 1.3-58.4-55.3-60.5 57.2 0.8 0.9zm1154.8 0l-36.5 34.6 6-7.9 30.5-28.7 30.6 28.9 4.3 5.5 61.3-58 59.4 56.1-0.9 1.2-58.5-55.2-60.4 57.1 0.8 1zm-192.5 0l-36.6 34.6 4-5.2 2.1-2.7 30.5-28.8 30.6 29 1.5 2 2.8 3.5 61.3-58 59.4 56.1-1 1.2-58.4-55.2-60.4 57.1 0.8 1zm384.9 0l-36.6 34.6 6.1-7.9 30.5-28.8 30.6 29 4.3 5.5 61.3-58 59.4 56.1-0.9 1.2-58.5-55.3-60.4 57.2 0.8 1zm354.4 26.7l29.1-27.5v2.1l-35.1 33.3zm-258.3 165l-73.4 69.4-1-1.2 74.4-70.3 74.4 70.3-0.9 1.2zm0 134.6l-13.4 12.6-0.9-1.2 14.3-13.5 14.2 13.5-0.9 1.2zm0-67.2l-43.4 41-0.9-1.2 44.3-41.9 44.3 41.9-0.9 1.2zm0 33.6l-28.4 26.9-0.9-1.2 29.3-27.7 29.3 27.7-0.9 1.2zm0-134.6l-88.5 83.7-0.9-1.2 89.4-84.6 89.4 84.6-1 1.2zm82 55.2l14.2-13.5h0.1l14.2 13.5-0.9 1.2-13.3-12.6-13.4 12.6zm-30-38.9l44.2-41.8 0.1 0.1 0.1-0.1 44.2 41.8-0.9 1.2-43.4-41-43.4 41zm15 19.5l29.2-27.7 0.1 0.1 0.1-0.1 29.2 27.7-0.9 1.2-28.4-26.9-28.3 26.9zm72.4 163.2l-43.1-40.9-43.2 40.9h-2.2l45.3-42.9h0.1l45.3 42.9zm-35.5 0l-7.6-7.2-7.7 7.2h-2.2l9.8-9.3h0.1l9.8 9.3zm71.1 0l-78.7-74.5-78.8 74.5h-2.2l80.9-76.6 0.1 0.1v-0.1l80.9 76.6zm-595.7-199l-60.4-57.1-60.5 57.1 0.8 1-36.6-34.6-36.6 34.6 0.8-1-1.7-1.6 1.8 1.4 5.2-6.7 30.5-28.8 30.6 29 4.3 5.5 61.4-58 61.3 58 4.4-5.7 30.5-28.8 30.6 29 4.3 5.5 61.3-58 61.4 58 4.4-5.7 30.5-28.8 30.6 29 4.3 5.5 61.3-58 59.3 56.1-0.9 1.2-58.4-55.2-60.4 57.1 0.7 1-36.5-34.6-36.6 34.6 0.7-1-60.4-57.1-60.4 57.1 0.8 1-36.6-34.6-36.6 34.6zm577.4 0l-1.6-1.6 1.8 1.4 5.2-6.7 30.5-28.8 30.6 29 4.3 5.5 59.9-56.8v2.1l-59 55.9 0.7 1-36.5-34.6-36.6 34.6zm-1347.3 0l-1.7-1.6 1.8 1.4 5.2-6.7 30.5-28.9 30.6 29 4.3 5.6 61.3-58.1 59.4 56.2-1 1.2-58.4-55.3-60.4 57.2 0.8 0.9-36.6-34.6-36.6 34.6zm385 0l-1.7-1.5 1.8 1.3 5.2-6.7 30.5-28.8 30.6 29 4.3 5.5 61.3-58 59.4 56.1-1 1.2-58.4-55.2-60.4 57.1 0.8 1-36.6-34.6-36.6 34.6zm-192.5 0l-1.6-1.6 1.8 1.4 5.2-6.7 30.5-28.8 30.6 29 4.3 5.5 61.3-58 59.3 56.1-0.9 1.2-58.4-55.3-60.4 57.2 0.7 1-36.5-34.6-36.6 34.6zm-385 0l-1.6-1.6 1.8 1.4 5.2-6.7 30.5-28.8 30.6 28.9 4.3 5.6 61.3-58.1 59.3 56.2-0.9 1.2-58.4-55.3-60.4 57.2 0.7 0.9-36.5-34.6-36.6 34.6zm1383.1-33.6l-36.5 34.6 0.7-1-1.7-1.5 1.8 1.4 5.2-6.8 30.5-28.8 30.7 29 4.2 5.5 61.3-58h0.1l59.3 56.1-0.9 1.2-58.4-55.2-60.4 57.1 0.7 1zm-1575.6 33.6l-1.7-1.5 1.8 1.4 5.2-6.8 30.5-28.8 30.6 29 4.3 5.5 61.4-58 59.3 56.1-0.9 1.2-58.4-55.2-60.5 57.1 0.8 1-36.6-34.6-36.6 34.6zm-59-55.9v-2l58 54.8-1 1.2zm1827.2 89.5l-73.5 69.5-0.9-1.2 74.4-70.4 74.3 70.4-0.9 1.2zm0 134.6l-13.3 12.6-1-1.2 14.3-13.5 14.3 13.5-1 1.2zm0-67.3l-43.3 41.1-1-1.2 44.3-42 44.4 42-1 1.2zm-29.3 59.2l29.3-27.7 29.3 27.7-0.9 1.2-28.4-26.8-28.3 26.8zm29.3-160.2l-88.5 83.7-0.9-1.2 89.4-84.5 89.4 84.5-1 1.2zm82 55.2l12.9-12.2v2.1l-12 11.3zm-60.1-77.7l73-69.1v2.1l-72 68.2zm-15.1-19.4l88.1-83.3v2.1l-87.1 82.4zm45.1 58.3l42.9-40.7v2.1l-42 39.8zm15 19.4l27.9-26.4v2.1l-27 25.5zm-391.4 88.7l-60.5-57.2-60.4 57.2 0.8 1-36.6-34.6-36.6 34.6 0.8-1-60.4-57.2-60.5 57.2 0.8 1-36.6-34.6-36.5 34.6 0.7-1-60.4-57.2-60.4 57.2 0.7 1-36.5-34.6-36.6 34.6 0.7-1-60.4-57.2-60.4 57.2 0.8 1-36.6-34.6-36.6 34.6 0.8-1-60.5-57.2-60.4 57.2 0.8 1-36.6-34.6-36.6 34.6 0.8-1-60.4-57.2-60.4 57.2 0.7 1-36.6-34.6-36.5 34.6 0.7-1-60.4-57.2-60.4 57.2 0.7 1-36.5-34.6-36.6 34.6 0.8-1-60.5-57.2-60.4 57.2 0.8 1-35.2-33.3v-2.1l29.2 27.7 1.5 1.9 2.8 3.6 61.3-58 59.4 56.1-0.8 1 2.2 1.6 5-6.4 30.5-28.8 30.6 29 1.5 1.9 2.7 3.6 61.4-58 61.4 58 1.6-2.2 2.8-3.5 30.4-28.8 30.7 29 4.2 5.5 61.4-58 59.3 56.1-0.8 1 2.2 1.7 5-6.5 30.5-28.8 30.6 29 1.5 1.9 2.8 3.6 61.3-58 61.4 58 4.3-5.6 30.6-28.9 30.6 29 1.5 1.9 2.8 3.6 61.3-58 61.4 58 2.7-3.5 1.7-2.2 30.5-28.8 30.6 29 1.5 1.9 2.7 3.6 61.4-58 61.4 58 2.7-3.5 1.7-2.2 30.4-28.8 30.7 29 1.4 1.9 2.8 3.6 61.4-58 61.3 58 4.4-5.7 30.5-28.8 30.6 29 4.3 5.5 61.3-58 61.4 58 0.9-1.2 3.5-4.5 30.5-28.8 30.6 29 4.3 5.5 61.3-58 59.4 56.1-1 1.2-58.4-55.3-60.4 57.2 0.7 1-36.5-34.6-36.6 34.6zm194.3-2.4l3.5-4.5 30.5-28.8 30.6 29 4.3 5.5 61.3-58.1 59.4 56.2-1 1.2-58.4-55.3-60.4 57.2 0.8 1-36.6-34.6-36.6 34.6zm196-4.6l29.1-27.5v2.1l-35.2 33.3zm-14.9 81.4l44-41.6v2.1l-41.8 39.5zm35.6 0l8.4-8v2.1l-6.2 5.9zm-71.1 0l79.5-75.3v2.1l-77.3 73.2z"/></g></svg>